<?xml version="1.0" encoding="utf-8"?>
<!-- Generator: Adobe Illustrator 22.1.0, SVG Export Plug-In . SVG Version: 6.00 Build 0)  -->
<svg version="1.0" id="Layer_1" xmlns="http://www.w3.org/2000/svg" xmlns:xlink="http://www.w3.org/1999/xlink" x="0px" y="0px"
	 viewBox="0 0 595.3 841.9" style="enable-background:new 0 0 595.3 841.9;" xml:space="preserve">
<style type="text/css">
	.st0{fill:#FEFEFE;}
	.st1{fill:#53CF19;}
	.st2{fill:#00007A;}
	.st3{fill:#FF6600;}
	.st4{fill:#006600;}
</style>
<g id="Layer_x0020_1">
	<rect x="169.6" y="293" class="st0" width="256" height="256"/>
	<polygon class="st1" points="352.1,362.4 220.8,397.6 243.1,481 374.5,445.7 	"/>
	<path class="st1" d="M395,371.9L384,331.4L178,386.5l10.9,40.5c11.7-3.2,23.8,3.8,26.9,15.5c3.1,11.7-3.8,23.8-15.5,26.9l11.1,41.1
		l205.9-55.2l-11.1-41c-11.7,3.1-23.8-3.8-26.9-15.5C376.3,387,383.2,375,395,371.9z M381.8,450.1L239,488.3l-25.6-95L356.2,355
		L381.8,450.1z"/>
	<circle class="st0" cx="297.1" cy="420.9" r="37"/>
	<g id="_1328786594720">
		<path class="st2" d="M275.9,398.7l26.6-7.6c0.2-0.1,0.4,0.1,0.4,0.2l0.9,3.2c0.1,0.2,0,0.4-0.2,0.4l-8,2.3l0.1,0.3
			c2.1,0.4,4,2,5.9,4.8l0.4,0.9l4.6-1.3c0.2,0,0.4,0.1,0.4,0.2l0.9,3.2c0.1,0.2,0,0.4-0.2,0.4l-4.2,1.2c1,3.6-0.2,7.6-3.6,12.2
			c-3.2,3.4-5.7,5.3-7.3,5.7c0,0.1-0.1,0.1-0.3,0.2l24.6,18.2l0.1,0.3l-6.8,1.9c-0.1,0-9.6-7.1-28.5-21.2l-0.1-0.1l2.2-0.6
			c7.6-2.2,11.4-6.2,11.4-12.2c-0.1-0.6-0.2-1.2-0.3-1.6l-0.1-0.4l-12.4,3.5c-0.1,0.1-0.3,0-0.4-0.1l-0.9-3.2
			c-0.1-0.1,0-0.3,0.1-0.4l12.2-3.5c-1.2-1.9-2.8-3.5-5.1-4.2c-2.9-0.8-5.4-0.6-7.5-0.1l-3.8,1.1c-0.2,0.1-0.4,0-0.4-0.2l-0.9-3.2
			C275.6,398.9,275.8,398.8,275.9,398.7z"/>
		<polygon class="st3" points="274.6,399 307.2,389.7 306.1,395.1 273.4,404.3 		"/>
		<polygon class="st4" points="277.6,409.8 310.3,400.5 309.2,405.9 276.5,415.1 		"/>
	</g>
</g>
</svg>
