<?xml version="1.0" encoding="utf-8"?>
<!-- Generator: Adobe Illustrator 22.1.0, SVG Export Plug-In . SVG Version: 6.00 Build 0)  -->
<svg version="1.0" id="Layer_1" xmlns="http://www.w3.org/2000/svg" xmlns:xlink="http://www.w3.org/1999/xlink" x="0px" y="0px"
	 viewBox="0 0 20 20" style="enable-background:new 0 0 20 20;" xml:space="preserve">
<style type="text/css">
	.st0{fill:none;}
</style>
<rect y="0" class="st0" width="20" height="20"/>
<path d="M4.8,12.2H4c-0.4,0-0.8,0.3-0.8,0.8v4c0,0.4,0.3,0.8,0.8,0.8h8c0.4,0,0.8-0.3,0.8-0.8v-1.9l-3.3-1.2v0.2H8.7
	c-0.1,0.7-0.6,1.2-1.5,1.2c0.5,0.6,1.1,1.3,1.7,2H8.2c-0.5-0.7-1.1-1.3-1.7-2v-0.4h0.4c0.8,0,1.2-0.3,1.2-0.8H6.5v-0.4h1.6
	C8,13.3,7.6,13.1,7,13.1H6.5v-0.3L4.8,12.2z"/>
<path d="M14.8,16.6c-0.3-0.3-0.6-0.6-0.7-1l-0.8-0.3V17c0,0.7-0.6,1.2-1.2,1.2H4c-0.7,0-1.2-0.6-1.2-1.2v-4c0-0.6,0.4-1,0.9-1.2
	l-2.9-1L1,10H0v3c0.5,0,1,0.2,1.4,0.6C1.8,14,2,14.5,2,15c0,0.6-0.2,1-0.6,1.4C1,16.8,0.5,17,0,17v3h16v-3h0
	C15.5,17,15.1,16.9,14.8,16.6z"/>
<path d="M20,6.4L4.9,1l-1,2.9c0.5,0.2,0.9,0.5,1.1,1c0.2,0.5,0.3,1,0.1,1.5c-0.2,0.5-0.5,0.9-1,1.1c-0.5,0.2-1,0.3-1.5,0.1l-1,2.8
	l15.1,5.4l1-2.8v0c-0.5-0.2-0.9-0.5-1.2-1c-0.2-0.5-0.3-1-0.1-1.5c0.2-0.5,0.5-0.9,1-1.1s1-0.3,1.5-0.1v0L20,6.4z M16.4,8.3L15,12.1
	c-0.2,0.5-0.7,0.8-1.2,0.8c-0.1,0-0.3,0-0.4-0.1l-7.5-2.7c-0.6-0.2-1-1-0.7-1.6l1.4-3.8c0.2-0.6,1-1,1.6-0.7l7.5,2.7
	c0.3,0.1,0.6,0.3,0.7,0.6S16.5,8,16.4,8.3z"/>
<path d="M8.7,13.6c0,0,0,0.1,0,0.1H9L8.7,13.6z"/>
<path d="M15.9,7.6c-0.1-0.2-0.2-0.3-0.4-0.4L8,4.5c-0.1,0-0.2,0-0.3,0C7.4,4.4,7.1,4.6,7,4.9L5.6,8.7C5.5,9,5.7,9.5,6.1,9.6l7.5,2.7
	c0.4,0.1,0.8-0.1,1-0.4l1.4-3.8C16,8,16,7.8,15.9,7.6z M12.8,7.1l-1.1-0.4c0.1,0.2,0.2,0.5,0.1,0.8l0.7,0.3l-0.1,0.3l-0.7-0.3
	c-0.3,0.6-1,0.9-1.9,0.6c0.3,0.7,0.6,1.6,0.9,2.5l-0.6-0.2C9.9,9.8,9.7,9.1,9.3,8.2l0.1-0.4l0.4,0.1C10.5,8.2,11,8,11.2,7.6L9.7,7
	l0.1-0.3l1.5,0.5c0-0.4-0.2-0.7-0.8-0.9L10,6.1l0.2-0.4l2.8,1L12.8,7.1z"/>
</svg>
